<?xml version="1.0" standalone="no"?>
<!DOCTYPE svg PUBLIC "-//W3C//DTD SVG 20010904//EN"
 "http://www.w3.org/TR/2001/REC-SVG-20010904/DTD/svg10.dtd">
<svg version="1.0" xmlns="http://www.w3.org/2000/svg"
 width="64.000000pt" height="64.000000pt" viewBox="0 0 64.000000 64.000000"
 preserveAspectRatio="xMidYMid meet">

<g transform="translate(0.000000,64.000000) scale(0.100000,-0.100000)"
fill="#000000" stroke="none">
<path d="M246 625 c-106 -38 -166 -174 -122 -279 20 -48 79 -103 126 -117 36
-11 40 -16 40 -44 0 -26 -5 -32 -32 -40 -18 -6 -33 -17 -33 -25 0 -10 12 -16
33 -18 29 -3 32 -6 32 -36 0 -18 7 -41 15 -52 15 -19 15 -19 30 0 8 11 15 34
15 52 0 30 3 33 33 36 20 2 32 8 32 18 0 8 -15 19 -32 25 -28 8 -33 14 -33 40
0 28 4 33 40 44 47 14 106 69 126 117 8 18 14 55 14 81 -1 148 -144 248 -284
198z m162 -62 c45 -34 65 -69 69 -125 7 -97 -60 -168 -157 -168 -172 0 -222
234 -65 306 40 19 119 12 153 -13z"/>
</g>
</svg>
