<?xml version="1.0" standalone="no"?>
<!DOCTYPE svg PUBLIC "-//W3C//DTD SVG 20010904//EN"
 "http://www.w3.org/TR/2001/REC-SVG-20010904/DTD/svg10.dtd">
<svg version="1.0" xmlns="http://www.w3.org/2000/svg"
 width="64.000000pt" height="64.000000pt" viewBox="0 0 64.000000 64.000000"
 preserveAspectRatio="xMidYMid meet">

<g transform="translate(0.000000,64.000000) scale(0.100000,-0.100000)"
fill="#000000" stroke="none">
<path d="M116 600 c-95 -29 -143 -168 -95 -273 11 -25 16 -27 76 -27 l64 0 19
45 c11 25 25 45 33 45 7 0 19 -18 27 -40 8 -22 19 -40 25 -40 5 -1 16 29 24
65 11 51 18 65 30 63 12 -2 18 -24 26 -88 10 -76 12 -83 23 -62 7 12 21 22 32
22 12 0 23 12 31 35 7 19 19 35 27 35 7 0 20 -16 28 -35 14 -34 16 -35 69 -35
51 0 56 2 66 28 6 15 13 50 16 79 17 157 -166 252 -276 143 -37 -37 -45 -37
-82 0 -28 27 -85 51 -119 49 -8 0 -28 -5 -44 -9z"/>
<path d="M195 288 c-9 -20 -19 -23 -72 -26 -35 -2 -63 -7 -63 -11 0 -17 133
-141 195 -181 56 -37 66 -40 87 -30 54 29 163 119 204 170 l44 55 -53 3 c-35
2 -56 8 -65 20 -12 16 -14 16 -23 0 -6 -10 -19 -18 -29 -18 -14 0 -22 -11 -30
-42 -20 -78 -27 -93 -41 -93 -15 0 -27 52 -29 120 -1 35 -2 38 -14 23 -20 -27
-64 -23 -78 7 -14 31 -20 31 -33 3z"/>
</g>
</svg>
