<?xml version="1.0" standalone="no"?>
<!DOCTYPE svg PUBLIC "-//W3C//DTD SVG 20010904//EN"
 "http://www.w3.org/TR/2001/REC-SVG-20010904/DTD/svg10.dtd">
<svg version="1.0" xmlns="http://www.w3.org/2000/svg"
 width="300.000000pt" height="172.000000pt" viewBox="0 0 300.000000 172.000000"
 preserveAspectRatio="xMidYMid meet">

<g transform="translate(0.000000,172.000000) scale(0.100000,-0.100000)"
fill="#ecf8f8" stroke="none">
<path d="M1615 1694 c-38 -9 -93 -26 -121 -38 -59 -27 -75 -54 -100 -167 -21
-96 -25 -103 -61 -107 -27 -3 -34 -11 -61 -70 -16 -37 -36 -87 -43 -112 -15
-55 -43 -97 -68 -105 -29 -9 -30 -24 -16 -121 13 -89 8 -194 -14 -272 -6 -18
-8 -39 -5 -46 7 -19 -44 -76 -68 -76 -20 0 -20 -4 -13 -134 7 -131 6 -134 -16
-155 -22 -20 -29 -21 -203 -15 -204 7 -252 0 -298 -46 -34 -34 -38 -85 -8
-122 48 -61 202 -98 408 -98 152 0 285 25 552 104 269 79 337 95 457 106 199
19 474 88 550 137 65 43 -13 173 -104 173 -18 0 -80 -18 -138 -40 -58 -22
-116 -40 -130 -40 -20 0 -33 14 -70 78 -111 187 -190 384 -182 454 4 38 -4 59
-64 180 -38 75 -69 143 -69 151 0 8 18 26 39 40 37 24 40 30 38 69 l-2 42 122
12 c127 13 163 24 163 50 0 17 -48 39 -167 78 -46 14 -110 44 -144 66 -69 45
-67 44 -164 24z m-64 -142 c9 -20 20 -50 25 -67 6 -20 17 -31 32 -33 20 -3 22
1 22 38 0 25 4 39 10 35 6 -3 10 -14 10 -23 0 -9 12 -29 27 -44 20 -21 24 -31
16 -39 -6 -6 -9 -19 -6 -28 4 -9 -7 -4 -25 13 l-31 29 -20 -24 c-20 -23 -20
-23 -21 -3 0 11 -9 29 -20 39 -11 10 -23 34 -26 54 -4 20 -13 45 -20 56 -17
24 -18 35 -1 35 6 0 19 -17 28 -38z m-124 -479 c30 -11 66 -42 133 -114 l91
-99 42 21 c23 12 61 35 85 51 23 16 47 26 53 22 19 -11 -1 -58 -44 -101 -40
-41 -40 -43 -22 -57 40 -29 4 -27 -48 3 -30 17 -64 31 -76 31 -12 0 -56 -20
-98 -45 -102 -59 -115 -51 -23 15 31 22 16 49 -31 56 -32 5 -46 15 -74 54 -19
26 -47 56 -62 65 l-26 18 27 20 27 20 -31 19 c-26 16 -30 21 -19 34 12 15 23
14 96 -13z m453 -438 c24 -25 50 -44 58 -42 15 2 40 -28 31 -37 -2 -3 -25 0
-49 6 -71 18 -321 15 -423 -5 -111 -22 -260 -71 -314 -103 -41 -24 -42 -24
-53 -5 -15 29 -13 30 23 25 26 -4 70 13 232 91 110 53 218 100 240 105 22 4
78 8 125 9 l86 1 44 -45z m573 -196 c22 -28 22 -56 -2 -68 -33 -18 -190 -60
-337 -91 -156 -32 -184 -35 -184 -20 0 10 328 173 395 196 51 17 105 10 128
-17z"/>
</g>
</svg>
