<?xml version="1.0" standalone="no"?>
<!DOCTYPE svg PUBLIC "-//W3C//DTD SVG 20010904//EN"
 "http://www.w3.org/TR/2001/REC-SVG-20010904/DTD/svg10.dtd">
<svg version="1.0" xmlns="http://www.w3.org/2000/svg"
 width="64.000000pt" height="64.000000pt" viewBox="0 0 64.000000 64.000000"
 preserveAspectRatio="xMidYMid meet">

<g transform="translate(0.000000,64.000000) scale(0.100000,-0.100000)"
fill="#000000" stroke="none">
<path d="M260 629 c-33 -13 -68 -47 -86 -81 -16 -31 -18 -96 -4 -118 7 -11 10
-8 10 16 0 36 16 54 46 54 12 0 36 11 52 25 17 14 35 25 42 25 7 0 25 -11 42
-25 16 -14 40 -25 52 -25 30 0 46 -18 46 -54 0 -24 3 -27 10 -16 30 47 -1 138
-62 183 -31 23 -111 32 -148 16z"/>
<path d="M450 632 c0 -5 9 -17 20 -27 11 -10 25 -33 32 -51 13 -37 23 -42 32
-18 13 34 6 73 -16 88 -24 17 -68 22 -68 8z"/>
<path d="M6 561 c-6 -9 39 -290 46 -296 2 -2 10 0 19 4 14 5 13 21 -10 150
-24 132 -38 169 -55 142z"/>
<path d="M307 496 c-3 -8 -25 -20 -48 -26 l-41 -11 5 -47 c7 -59 41 -92 97
-92 56 0 90 33 97 92 l5 47 -41 11 c-23 6 -45 18 -48 26 -3 7 -9 14 -13 14 -4
0 -10 -7 -13 -14z"/>
<path d="M260 270 c0 -30 30 -60 60 -60 30 0 60 30 60 60 0 12 -13 15 -60 15
-47 0 -60 -3 -60 -15z"/>
<path d="M143 272 c-10 -6 -8 -17 7 -47 11 -22 20 -44 20 -51 0 -16 105 -22
268 -16 88 3 132 8 132 16 0 45 -78 106 -134 106 -22 0 -26 -4 -26 -29 0 -42
-43 -81 -90 -81 -47 0 -90 39 -90 81 0 27 -3 29 -37 29 -21 0 -44 -4 -50 -8z"/>
<path d="M52 218 c-28 -28 -6 -98 31 -98 31 0 47 18 47 51 0 47 -49 76 -78 47z"/>
<path d="M130 99 c-18 -15 -33 -19 -57 -16 -25 4 -33 2 -33 -9 0 -8 -9 -14
-20 -14 -16 0 -29 -24 -17 -32 2 -1 288 -17 317 -17 29 0 315 16 318 17 11 8
-2 32 -17 32 -14 0 -21 8 -23 28 l-3 27 -130 -2 c-72 0 -137 -1 -145 -2 -8 0
-49 2 -90 5 -66 4 -78 2 -100 -17z"/>
</g>
</svg>
