<?xml version="1.0" standalone="no"?>
<!DOCTYPE svg PUBLIC "-//W3C//DTD SVG 20010904//EN"
 "http://www.w3.org/TR/2001/REC-SVG-20010904/DTD/svg10.dtd">
<svg version="1.0" xmlns="http://www.w3.org/2000/svg"
 width="64.000000pt" height="64.000000pt" viewBox="0 0 64.000000 64.000000"
 preserveAspectRatio="xMidYMid meet">

<g transform="translate(0.000000,64.000000) scale(0.100000,-0.100000)"
fill="#000000" stroke="none">
<path d="M230 619 c-80 -36 -125 -96 -136 -183 -13 -94 59 -211 147 -238 31
-9 39 -16 39 -35 0 -18 -5 -23 -25 -23 -46 0 -44 -61 2 -68 12 -2 23 -15 29
-35 13 -46 55 -46 68 0 6 20 17 33 29 35 46 7 48 68 2 68 -20 0 -25 5 -25 23
0 19 8 26 39 35 55 17 117 83 137 146 58 183 -132 354 -306 275z m156 -70
c147 -71 97 -289 -66 -289 -52 0 -92 21 -126 66 -56 73 -27 181 59 223 53 26
80 26 133 0z"/>
</g>
</svg>
