<?xml version="1.0" standalone="no"?>
<!DOCTYPE svg PUBLIC "-//W3C//DTD SVG 20010904//EN"
 "http://www.w3.org/TR/2001/REC-SVG-20010904/DTD/svg10.dtd">
<svg version="1.0" xmlns="http://www.w3.org/2000/svg"
 width="64.000000pt" height="64.000000pt" viewBox="0 0 64.000000 64.000000"
 preserveAspectRatio="xMidYMid meet">

<g transform="translate(0.000000,64.000000) scale(0.100000,-0.100000)"
fill="#000000" stroke="none">
<path d="M263 522 c-137 -75 -223 -128 -223 -139 0 -13 253 -163 275 -163 21
0 275 151 275 164 0 10 -214 139 -261 158 -10 4 -36 -4 -66 -20z"/>
<path d="M557 323 c-3 -5 -6 -48 -8 -98 l-4 -90 25 0 c19 0 25 5 24 23 0 12
-1 56 -2 97 -2 58 -5 75 -16 75 -8 0 -17 -3 -19 -7z"/>
<path d="M132 233 c3 -47 4 -48 73 -90 93 -58 127 -58 220 0 69 42 70 43 73
90 2 26 0 47 -4 47 -4 0 -39 -19 -78 -42 -39 -22 -84 -41 -101 -42 -18 0 -58
17 -101 42 -38 23 -74 42 -78 42 -4 0 -6 -21 -4 -47z"/>
</g>
</svg>
