<?xml version="1.0" standalone="no"?>
<!DOCTYPE svg PUBLIC "-//W3C//DTD SVG 20010904//EN"
 "http://www.w3.org/TR/2001/REC-SVG-20010904/DTD/svg10.dtd">
<svg version="1.0" xmlns="http://www.w3.org/2000/svg"
 width="64.000000pt" height="64.000000pt" viewBox="0 0 64.000000 64.000000"
 preserveAspectRatio="xMidYMid meet">

<g transform="translate(0.000000,64.000000) scale(0.100000,-0.100000)"
fill="#000000" stroke="none">
<path d="M82 624 c-12 -8 -22 -22 -22 -30 0 -8 -6 -14 -13 -14 -25 0 -50 -37
-43 -64 6 -26 45 -44 65 -31 6 3 20 1 32 -5 16 -9 24 -8 39 5 26 23 22 121 -5
141 -24 17 -26 17 -53 -2z"/>
<path d="M505 626 c-27 -20 -31 -118 -5 -141 15 -13 23 -14 39 -5 12 6 26 8
32 5 20 -13 59 5 65 31 7 27 -18 64 -43 64 -7 0 -13 6 -13 14 0 13 -36 46 -50
46 -4 0 -15 -6 -25 -14z"/>
<path d="M233 525 c-75 -38 -108 -91 -107 -175 1 -104 15 -163 42 -175 12 -5
25 -18 28 -27 5 -16 19 -18 121 -18 106 0 115 1 120 20 3 11 13 20 22 20 24 0
41 20 41 49 0 14 5 51 12 82 9 45 9 66 -1 98 -24 81 -112 150 -192 151 -19 0
-58 -11 -86 -25z m38 -195 c23 -13 25 -47 2 -72 -33 -36 -93 -13 -93 37 0 38
49 57 91 35z m170 0 c23 -13 25 -47 2 -72 -33 -36 -93 -13 -93 37 0 38 49 57
91 35z m-103 -110 c15 -25 8 -40 -18 -40 -25 0 -33 15 -20 40 14 25 22 25 38
0z"/>
<path d="M100 161 c-8 -6 -26 -7 -40 -4 -30 6 -60 -17 -60 -46 0 -20 30 -51
48 -51 7 0 12 -7 12 -15 0 -8 11 -22 24 -30 19 -13 29 -14 45 -5 24 12 23 8
26 75 2 34 -2 56 -13 68 -17 19 -21 20 -42 8z"/>
<path d="M498 153 c-11 -12 -15 -33 -13 -68 3 -67 2 -63 26 -75 16 -9 26 -8
45 5 13 8 24 22 24 30 0 8 6 15 13 15 18 0 47 32 47 53 0 26 -29 47 -63 45
-18 -1 -39 2 -48 6 -9 4 -21 0 -31 -11z"/>
</g>
</svg>
